<?xml version="1.0" standalone="no"?>
<!DOCTYPE svg PUBLIC "-//W3C//DTD SVG 20010904//EN"
 "http://www.w3.org/TR/2001/REC-SVG-20010904/DTD/svg10.dtd">
<svg version="1.0" xmlns="http://www.w3.org/2000/svg"
 width="64.000000pt" height="64.000000pt" viewBox="0 0 64.000000 64.000000"
 preserveAspectRatio="xMidYMid meet">

<g transform="translate(0.000000,64.000000) scale(0.100000,-0.100000)"
fill="#000000" stroke="none">
<path d="M65 495 c-24 -23 -25 -28 -25 -175 0 -147 1 -152 25 -175 l24 -25
231 0 231 0 24 25 c24 23 25 28 25 175 0 147 -1 152 -25 175 l-24 25 -231 0
-231 0 -24 -25z m493 -17 c7 -7 12 -25 12 -40 l0 -28 -250 0 -250 0 0 28 c0
15 5 33 12 40 17 17 459 17 476 0z m12 -196 c0 -71 -4 -112 -12 -120 -17 -17
-459 -17 -476 0 -8 8 -12 49 -12 120 l0 108 250 0 250 0 0 -108z"/>
<path d="M127 223 c-17 -17 -2 -23 58 -23 51 0 65 3 65 15 0 12 -13 15 -58 15
-32 0 -62 -3 -65 -7z"/>
</g>
</svg>
